<?xml version="1.0" encoding="UTF-8"?>
<svg width="359px" height="154px" viewBox="0 0 359 154" version="1.1" xmlns="http://www.w3.org/2000/svg" xmlns:xlink="http://www.w3.org/1999/xlink">
    <!-- Generator: Sketch 53.1 (72631) - https://sketchapp.com -->
    <title>Group</title>
    <desc>Created with Sketch.</desc>
    <defs>
        <path d="M0.483,77.424 C0.483,119.743 34.79,154.049 77.109,154.049 L77.109,154.049 C119.428,154.049 153.734,119.743 153.734,77.424 L153.734,77.424 C153.734,35.105 119.428,0.798 77.109,0.798 L77.109,0.798 C34.79,0.798 0.483,35.105 0.483,77.424 L0.483,77.424 Z" id="path-1"></path>
        <path d="M0.483,77.424 C0.483,119.743 34.79,154.049 77.109,154.049 L77.109,154.049 C119.428,154.049 153.734,119.743 153.734,77.424 L153.734,77.424 C153.734,35.105 119.428,0.798 77.109,0.798 L77.109,0.798 C34.79,0.798 0.483,35.105 0.483,77.424 L0.483,77.424 Z" id="path-3"></path>
        <path d="M0.483,77.424 C0.483,119.743 34.79,154.049 77.109,154.049 L77.109,154.049 C119.428,154.049 153.734,119.743 153.734,77.424 L153.734,77.424 C153.734,35.105 119.428,0.798 77.109,0.798 L77.109,0.798 C34.79,0.798 0.483,35.105 0.483,77.424 L0.483,77.424 Z" id="path-5"></path>
        <path d="M0.483,77.424 C0.483,119.743 34.79,154.049 77.109,154.049 L77.109,154.049 C119.428,154.049 153.734,119.743 153.734,77.424 L153.734,77.424 C153.734,35.105 119.428,0.798 77.109,0.798 L77.109,0.798 C34.79,0.798 0.483,35.105 0.483,77.424 L0.483,77.424 Z" id="path-7"></path>
        <path d="M0.483,77.424 C0.483,119.743 34.79,154.049 77.109,154.049 L77.109,154.049 C119.428,154.049 153.734,119.743 153.734,77.424 L153.734,77.424 C153.734,35.105 119.428,0.798 77.109,0.798 L77.109,0.798 C34.79,0.798 0.483,35.105 0.483,77.424 L0.483,77.424 Z" id="path-9"></path>
        <path d="M0.483,77.424 C0.483,119.743 34.79,154.049 77.109,154.049 L77.109,154.049 C119.428,154.049 153.734,119.743 153.734,77.424 L153.734,77.424 C153.734,35.105 119.428,0.798 77.109,0.798 L77.109,0.798 C34.79,0.798 0.483,35.105 0.483,77.424 L0.483,77.424 Z" id="path-11"></path>
        <path d="M0.483,77.424 C0.483,119.743 34.79,154.049 77.109,154.049 L77.109,154.049 C119.428,154.049 153.734,119.743 153.734,77.424 L153.734,77.424 C153.734,35.105 119.428,0.798 77.109,0.798 L77.109,0.798 C34.79,0.798 0.483,35.105 0.483,77.424 L0.483,77.424 Z" id="path-13"></path>
        <path d="M0.483,77.424 C0.483,119.743 34.79,154.049 77.109,154.049 L77.109,154.049 C119.428,154.049 153.734,119.743 153.734,77.424 L153.734,77.424 C153.734,35.105 119.428,0.798 77.109,0.798 L77.109,0.798 C34.79,0.798 0.483,35.105 0.483,77.424 L0.483,77.424 Z" id="path-15"></path>
        <path d="M0.483,77.424 C0.483,119.743 34.79,154.049 77.109,154.049 L77.109,154.049 C119.428,154.049 153.734,119.743 153.734,77.424 L153.734,77.424 C153.734,35.105 119.428,0.798 77.109,0.798 L77.109,0.798 C34.79,0.798 0.483,35.105 0.483,77.424 L0.483,77.424 Z" id="path-17"></path>
        <path d="M0.483,77.424 C0.483,119.743 34.79,154.049 77.109,154.049 L77.109,154.049 C119.428,154.049 153.734,119.743 153.734,77.424 L153.734,77.424 C153.734,35.105 119.428,0.798 77.109,0.798 L77.109,0.798 C34.79,0.798 0.483,35.105 0.483,77.424 L0.483,77.424 Z" id="path-19"></path>
        <path d="M0.483,77.424 C0.483,119.743 34.79,154.049 77.109,154.049 L77.109,154.049 C119.428,154.049 153.734,119.743 153.734,77.424 L153.734,77.424 C153.734,35.105 119.428,0.798 77.109,0.798 L77.109,0.798 C34.79,0.798 0.483,35.105 0.483,77.424 L0.483,77.424 Z" id="path-21"></path>
        <path d="M0.483,77.424 C0.483,119.743 34.79,154.049 77.109,154.049 L77.109,154.049 C119.428,154.049 153.734,119.743 153.734,77.424 L153.734,77.424 C153.734,35.105 119.428,0.798 77.109,0.798 L77.109,0.798 C34.79,0.798 0.483,35.105 0.483,77.424 L0.483,77.424 Z" id="path-23"></path>
        <path d="M0.483,77.424 C0.483,119.743 34.79,154.049 77.109,154.049 L77.109,154.049 C119.428,154.049 153.734,119.743 153.734,77.424 L153.734,77.424 C153.734,35.105 119.428,0.798 77.109,0.798 L77.109,0.798 C34.79,0.798 0.483,35.105 0.483,77.424 L0.483,77.424 Z" id="path-25"></path>
        <path d="M0.483,77.424 C0.483,119.743 34.79,154.049 77.109,154.049 L77.109,154.049 C119.428,154.049 153.734,119.743 153.734,77.424 L153.734,77.424 C153.734,35.105 119.428,0.798 77.109,0.798 L77.109,0.798 C34.79,0.798 0.483,35.105 0.483,77.424 L0.483,77.424 Z" id="path-27"></path>
        <path d="M0.483,77.424 C0.483,119.743 34.79,154.049 77.109,154.049 L77.109,154.049 C119.428,154.049 153.734,119.743 153.734,77.424 L153.734,77.424 C153.734,35.105 119.428,0.798 77.109,0.798 L77.109,0.798 C34.79,0.798 0.483,35.105 0.483,77.424 L0.483,77.424 Z" id="path-29"></path>
        <path d="M0.483,77.424 C0.483,119.743 34.79,154.049 77.109,154.049 L77.109,154.049 C119.428,154.049 153.734,119.743 153.734,77.424 L153.734,77.424 C153.734,35.105 119.428,0.798 77.109,0.798 L77.109,0.798 C34.79,0.798 0.483,35.105 0.483,77.424 L0.483,77.424 Z" id="path-31"></path>
        <path d="M0.483,77.424 C0.483,119.743 34.79,154.049 77.109,154.049 L77.109,154.049 C119.428,154.049 153.734,119.743 153.734,77.424 L153.734,77.424 C153.734,35.105 119.428,0.798 77.109,0.798 L77.109,0.798 C34.79,0.798 0.483,35.105 0.483,77.424 L0.483,77.424 Z" id="path-33"></path>
        <path d="M0.483,77.424 C0.483,119.743 34.79,154.049 77.109,154.049 L77.109,154.049 C119.428,154.049 153.734,119.743 153.734,77.424 L153.734,77.424 C153.734,35.105 119.428,0.798 77.109,0.798 L77.109,0.798 C34.79,0.798 0.483,35.105 0.483,77.424 L0.483,77.424 Z" id="path-35"></path>
        <path d="M0.483,77.424 C0.483,119.743 34.79,154.049 77.109,154.049 L77.109,154.049 C119.428,154.049 153.734,119.743 153.734,77.424 L153.734,77.424 C153.734,35.105 119.428,0.798 77.109,0.798 L77.109,0.798 C34.79,0.798 0.483,35.105 0.483,77.424 L0.483,77.424 Z" id="path-37"></path>
        <path d="M0.483,77.424 C0.483,119.743 34.79,154.049 77.109,154.049 L77.109,154.049 C119.428,154.049 153.734,119.743 153.734,77.424 L153.734,77.424 C153.734,35.105 119.428,0.798 77.109,0.798 L77.109,0.798 C34.79,0.798 0.483,35.105 0.483,77.424 L0.483,77.424 Z" id="path-39"></path>
        <path d="M0.483,77.424 C0.483,119.743 34.79,154.049 77.109,154.049 L77.109,154.049 C119.428,154.049 153.734,119.743 153.734,77.424 L153.734,77.424 C153.734,35.105 119.428,0.798 77.109,0.798 L77.109,0.798 C34.79,0.798 0.483,35.105 0.483,77.424 L0.483,77.424 Z" id="path-41"></path>
        <path d="M0.483,77.424 C0.483,119.743 34.79,154.049 77.109,154.049 L77.109,154.049 C119.428,154.049 153.734,119.743 153.734,77.424 L153.734,77.424 C153.734,35.105 119.428,0.798 77.109,0.798 L77.109,0.798 C34.79,0.798 0.483,35.105 0.483,77.424 L0.483,77.424 Z" id="path-43"></path>
        <path d="M0.483,77.424 C0.483,119.743 34.79,154.049 77.109,154.049 L77.109,154.049 C119.428,154.049 153.734,119.743 153.734,77.424 L153.734,77.424 C153.734,35.105 119.428,0.798 77.109,0.798 L77.109,0.798 C34.79,0.798 0.483,35.105 0.483,77.424 L0.483,77.424 Z" id="path-45"></path>
        <path d="M0.483,77.424 C0.483,119.743 34.79,154.049 77.109,154.049 L77.109,154.049 C119.428,154.049 153.734,119.743 153.734,77.424 L153.734,77.424 C153.734,35.105 119.428,0.798 77.109,0.798 L77.109,0.798 C34.79,0.798 0.483,35.105 0.483,77.424 L0.483,77.424 Z" id="path-47"></path>
        <path d="M0.483,77.424 C0.483,119.743 34.79,154.049 77.109,154.049 L77.109,154.049 C119.428,154.049 153.734,119.743 153.734,77.424 L153.734,77.424 C153.734,35.105 119.428,0.798 77.109,0.798 L77.109,0.798 C34.79,0.798 0.483,35.105 0.483,77.424 L0.483,77.424 Z" id="path-49"></path>
        <path d="M0.483,77.424 C0.483,119.743 34.79,154.049 77.109,154.049 L77.109,154.049 C119.428,154.049 153.734,119.743 153.734,77.424 L153.734,77.424 C153.734,35.105 119.428,0.798 77.109,0.798 L77.109,0.798 C34.79,0.798 0.483,35.105 0.483,77.424 L0.483,77.424 Z" id="path-51"></path>
        <path d="M0.483,77.424 C0.483,119.743 34.79,154.049 77.109,154.049 L77.109,154.049 C119.428,154.049 153.734,119.743 153.734,77.424 L153.734,77.424 C153.734,35.105 119.428,0.798 77.109,0.798 L77.109,0.798 C34.79,0.798 0.483,35.105 0.483,77.424 L0.483,77.424 Z" id="path-53"></path>
        <path d="M0.483,77.424 C0.483,119.743 34.79,154.049 77.109,154.049 L77.109,154.049 C119.428,154.049 153.734,119.743 153.734,77.424 L153.734,77.424 C153.734,35.105 119.428,0.798 77.109,0.798 L77.109,0.798 C34.79,0.798 0.483,35.105 0.483,77.424 L0.483,77.424 Z" id="path-55"></path>
        <path d="M0.483,77.424 C0.483,119.743 34.79,154.049 77.109,154.049 L77.109,154.049 C119.428,154.049 153.734,119.743 153.734,77.424 L153.734,77.424 C153.734,35.105 119.428,0.798 77.109,0.798 L77.109,0.798 C34.79,0.798 0.483,35.105 0.483,77.424 L0.483,77.424 Z" id="path-57"></path>
        <path d="M0.483,77.424 C0.483,119.743 34.79,154.049 77.109,154.049 L77.109,154.049 C119.428,154.049 153.734,119.743 153.734,77.424 L153.734,77.424 C153.734,35.105 119.428,0.798 77.109,0.798 L77.109,0.798 C34.79,0.798 0.483,35.105 0.483,77.424 L0.483,77.424 Z" id="path-59"></path>
        <path d="M0.483,77.424 C0.483,119.743 34.79,154.049 77.109,154.049 L77.109,154.049 C119.428,154.049 153.734,119.743 153.734,77.424 L153.734,77.424 C153.734,35.105 119.428,0.798 77.109,0.798 L77.109,0.798 C34.79,0.798 0.483,35.105 0.483,77.424 L0.483,77.424 Z" id="path-61"></path>
        <path d="M0.483,77.424 C0.483,119.743 34.79,154.049 77.109,154.049 L77.109,154.049 C119.428,154.049 153.734,119.743 153.734,77.424 L153.734,77.424 C153.734,35.105 119.428,0.798 77.109,0.798 L77.109,0.798 C34.79,0.798 0.483,35.105 0.483,77.424 L0.483,77.424 Z" id="path-63"></path>
        <path d="M0.483,77.424 C0.483,119.743 34.79,154.049 77.109,154.049 L77.109,154.049 C119.428,154.049 153.734,119.743 153.734,77.424 L153.734,77.424 C153.734,35.105 119.428,0.798 77.109,0.798 L77.109,0.798 C34.79,0.798 0.483,35.105 0.483,77.424 L0.483,77.424 Z" id="path-65"></path>
        <path d="M0.483,77.424 C0.483,119.743 34.79,154.049 77.109,154.049 L77.109,154.049 C119.428,154.049 153.734,119.743 153.734,77.424 L153.734,77.424 C153.734,35.105 119.428,0.798 77.109,0.798 L77.109,0.798 C34.79,0.798 0.483,35.105 0.483,77.424 L0.483,77.424 Z" id="path-67"></path>
        <path d="M0.483,77.424 C0.483,119.743 34.79,154.049 77.109,154.049 L77.109,154.049 C119.428,154.049 153.734,119.743 153.734,77.424 L153.734,77.424 C153.734,35.105 119.428,0.798 77.109,0.798 L77.109,0.798 C34.79,0.798 0.483,35.105 0.483,77.424 L0.483,77.424 Z" id="path-69"></path>
        <path d="M0.483,77.424 C0.483,119.743 34.79,154.049 77.109,154.049 L77.109,154.049 C119.428,154.049 153.734,119.743 153.734,77.424 L153.734,77.424 C153.734,35.105 119.428,0.798 77.109,0.798 L77.109,0.798 C34.79,0.798 0.483,35.105 0.483,77.424 L0.483,77.424 Z" id="path-71"></path>
        <path d="M0.483,77.424 C0.483,119.743 34.79,154.049 77.109,154.049 L77.109,154.049 C119.428,154.049 153.734,119.743 153.734,77.424 L153.734,77.424 C153.734,35.105 119.428,0.798 77.109,0.798 L77.109,0.798 C34.79,0.798 0.483,35.105 0.483,77.424 L0.483,77.424 Z" id="path-73"></path>
        <path d="M0.483,77.424 C0.483,119.743 34.79,154.049 77.109,154.049 L77.109,154.049 C119.428,154.049 153.734,119.743 153.734,77.424 L153.734,77.424 C153.734,35.105 119.428,0.798 77.109,0.798 L77.109,0.798 C34.79,0.798 0.483,35.105 0.483,77.424 L0.483,77.424 Z" id="path-75"></path>
        <path d="M0.483,77.424 C0.483,119.743 34.79,154.049 77.109,154.049 L77.109,154.049 C119.428,154.049 153.734,119.743 153.734,77.424 L153.734,77.424 C153.734,35.105 119.428,0.798 77.109,0.798 L77.109,0.798 C34.79,0.798 0.483,35.105 0.483,77.424 L0.483,77.424 Z" id="path-77"></path>
        <path d="M0.483,77.424 C0.483,119.743 34.79,154.049 77.109,154.049 L77.109,154.049 C119.428,154.049 153.734,119.743 153.734,77.424 L153.734,77.424 C153.734,35.105 119.428,0.798 77.109,0.798 L77.109,0.798 C34.79,0.798 0.483,35.105 0.483,77.424 L0.483,77.424 Z" id="path-79"></path>
        <path d="M0.483,77.424 C0.483,119.743 34.79,154.049 77.109,154.049 L77.109,154.049 C119.428,154.049 153.734,119.743 153.734,77.424 L153.734,77.424 C153.734,35.105 119.428,0.798 77.109,0.798 L77.109,0.798 C34.79,0.798 0.483,35.105 0.483,77.424 L0.483,77.424 Z" id="path-81"></path>
        <path d="M0.483,77.424 C0.483,119.743 34.79,154.049 77.109,154.049 L77.109,154.049 C119.428,154.049 153.734,119.743 153.734,77.424 L153.734,77.424 C153.734,35.105 119.428,0.798 77.109,0.798 L77.109,0.798 C34.79,0.798 0.483,35.105 0.483,77.424 L0.483,77.424 Z" id="path-83"></path>
        <path d="M0.483,77.424 C0.483,119.743 34.79,154.049 77.109,154.049 L77.109,154.049 C119.428,154.049 153.734,119.743 153.734,77.424 L153.734,77.424 C153.734,35.105 119.428,0.798 77.109,0.798 L77.109,0.798 C34.79,0.798 0.483,35.105 0.483,77.424 L0.483,77.424 Z" id="path-85"></path>
        <path d="M0.483,77.424 C0.483,119.743 34.79,154.049 77.109,154.049 L77.109,154.049 C119.428,154.049 153.734,119.743 153.734,77.424 L153.734,77.424 C153.734,35.105 119.428,0.798 77.109,0.798 L77.109,0.798 C34.79,0.798 0.483,35.105 0.483,77.424 L0.483,77.424 Z" id="path-87"></path>
        <path d="M0.483,77.424 C0.483,119.743 34.79,154.049 77.109,154.049 L77.109,154.049 C119.428,154.049 153.734,119.743 153.734,77.424 L153.734,77.424 C153.734,35.105 119.428,0.798 77.109,0.798 L77.109,0.798 C34.79,0.798 0.483,35.105 0.483,77.424 L0.483,77.424 Z" id="path-89"></path>
        <path d="M0.483,77.424 C0.483,119.743 34.79,154.049 77.109,154.049 L77.109,154.049 C119.428,154.049 153.734,119.743 153.734,77.424 L153.734,77.424 C153.734,35.105 119.428,0.798 77.109,0.798 L77.109,0.798 C34.79,0.798 0.483,35.105 0.483,77.424 L0.483,77.424 Z" id="path-91"></path>
        <path d="M0.483,77.424 C0.483,119.743 34.79,154.049 77.109,154.049 L77.109,154.049 C119.428,154.049 153.734,119.743 153.734,77.424 L153.734,77.424 C153.734,35.105 119.428,0.798 77.109,0.798 L77.109,0.798 C34.79,0.798 0.483,35.105 0.483,77.424 L0.483,77.424 Z" id="path-93"></path>
        <path d="M0.483,77.424 C0.483,119.743 34.79,154.049 77.109,154.049 L77.109,154.049 C119.428,154.049 153.734,119.743 153.734,77.424 L153.734,77.424 C153.734,35.105 119.428,0.798 77.109,0.798 L77.109,0.798 C34.79,0.798 0.483,35.105 0.483,77.424 L0.483,77.424 Z" id="path-95"></path>
        <path d="M0.483,77.424 C0.483,119.743 34.79,154.049 77.109,154.049 L77.109,154.049 C119.428,154.049 153.734,119.743 153.734,77.424 L153.734,77.424 C153.734,35.105 119.428,0.798 77.109,0.798 L77.109,0.798 C34.79,0.798 0.483,35.105 0.483,77.424 L0.483,77.424 Z" id="path-97"></path>
        <path d="M0.483,77.424 C0.483,119.743 34.79,154.049 77.109,154.049 L77.109,154.049 C119.428,154.049 153.734,119.743 153.734,77.424 L153.734,77.424 C153.734,35.105 119.428,0.798 77.109,0.798 L77.109,0.798 C34.79,0.798 0.483,35.105 0.483,77.424 L0.483,77.424 Z" id="path-99"></path>
        <path d="M0.483,77.424 C0.483,119.743 34.79,154.049 77.109,154.049 L77.109,154.049 C119.428,154.049 153.734,119.743 153.734,77.424 L153.734,77.424 C153.734,35.105 119.428,0.798 77.109,0.798 L77.109,0.798 C34.79,0.798 0.483,35.105 0.483,77.424 L0.483,77.424 Z" id="path-101"></path>
        <path d="M0.483,77.424 C0.483,119.743 34.79,154.049 77.109,154.049 L77.109,154.049 C119.428,154.049 153.734,119.743 153.734,77.424 L153.734,77.424 C153.734,35.105 119.428,0.798 77.109,0.798 L77.109,0.798 C34.79,0.798 0.483,35.105 0.483,77.424 L0.483,77.424 Z" id="path-103"></path>
        <path d="M0.483,77.424 C0.483,119.743 34.79,154.049 77.109,154.049 L77.109,154.049 C119.428,154.049 153.734,119.743 153.734,77.424 L153.734,77.424 C153.734,35.105 119.428,0.798 77.109,0.798 L77.109,0.798 C34.79,0.798 0.483,35.105 0.483,77.424 L0.483,77.424 Z" id="path-105"></path>
        <path d="M0.483,77.424 C0.483,119.743 34.79,154.049 77.109,154.049 L77.109,154.049 C119.428,154.049 153.734,119.743 153.734,77.424 L153.734,77.424 C153.734,35.105 119.428,0.798 77.109,0.798 L77.109,0.798 C34.79,0.798 0.483,35.105 0.483,77.424 L0.483,77.424 Z" id="path-107"></path>
        <path d="M0.483,77.424 C0.483,119.743 34.79,154.049 77.109,154.049 L77.109,154.049 C119.428,154.049 153.734,119.743 153.734,77.424 L153.734,77.424 C153.734,35.105 119.428,0.798 77.109,0.798 L77.109,0.798 C34.79,0.798 0.483,35.105 0.483,77.424 L0.483,77.424 Z" id="path-109"></path>
        <path d="M0.483,77.424 C0.483,119.743 34.79,154.049 77.109,154.049 L77.109,154.049 C119.428,154.049 153.734,119.743 153.734,77.424 L153.734,77.424 C153.734,35.105 119.428,0.798 77.109,0.798 L77.109,0.798 C34.79,0.798 0.483,35.105 0.483,77.424 L0.483,77.424 Z" id="path-111"></path>
        <path d="M0.483,77.424 C0.483,119.743 34.79,154.049 77.109,154.049 L77.109,154.049 C119.428,154.049 153.734,119.743 153.734,77.424 L153.734,77.424 C153.734,35.105 119.428,0.798 77.109,0.798 L77.109,0.798 C34.79,0.798 0.483,35.105 0.483,77.424 L0.483,77.424 Z" id="path-113"></path>
        <path d="M0.483,77.424 C0.483,119.743 34.79,154.049 77.109,154.049 L77.109,154.049 C119.428,154.049 153.734,119.743 153.734,77.424 L153.734,77.424 C153.734,35.105 119.428,0.798 77.109,0.798 L77.109,0.798 C34.79,0.798 0.483,35.105 0.483,77.424 L0.483,77.424 Z" id="path-115"></path>
    </defs>
    <g id="Page-1" stroke="none" stroke-width="1" fill="none" fill-rule="evenodd">
        <g id="SPH-logo-master" transform="translate(-220.000000, -206.000000)">
            <g id="Group" transform="translate(220.000000, 205.276000)">
                <g id="Group-175" transform="translate(103.000000, 0.000000)">
                    <g id="Group-3">
                        <mask id="mask-2" fill="white">
                            <use xlink:href="#path-1"></use>
                        </mask>
                        <g id="Clip-2"></g>
                        <polygon id="Fill-1" fill="#FFFFFF" mask="url(#mask-2)" points="78.2508 21.0286 77.2058 21.0286 76.3248 -12.6314 79.2308 -12.6314"></polygon>
                    </g>
                    <g id="Group-6">
                        <mask id="mask-4" fill="white">
                            <use xlink:href="#path-3"></use>
                        </mask>
                        <g id="Clip-5"></g>
                        <polygon id="Fill-4" fill="#FFFFFF" mask="url(#mask-4)" points="83.701 14.4373 82.469 14.3253 83.754 -12.3617 86.652 -12.1427"></polygon>
                    </g>
                    <g id="Group-9">
                        <mask id="mask-6" fill="white">
                            <use xlink:href="#path-5"></use>
                        </mask>
                        <g id="Clip-8"></g>
                        <polygon id="Fill-7" fill="#FFFFFF" mask="url(#mask-6)" points="87.6629 22.1433 86.6329 21.9673 91.4469 -11.3577 94.3119 -10.8677"></polygon>
                    </g>
                    <g id="Group-12">
                        <mask id="mask-8" fill="white">
                            <use xlink:href="#path-7"></use>
                        </mask>
                        <g id="Clip-11"></g>
                        <polygon id="Fill-10" fill="#FFFFFF" mask="url(#mask-8)" points="94.1473 16.5667 92.9523 16.2487 98.7243 -9.8383 101.5433 -9.1333"></polygon>
                    </g>
                    <g id="Group-15">
                        <mask id="mask-10" fill="white">
                            <use xlink:href="#path-9"></use>
                        </mask>
                        <g id="Clip-14"></g>
                        <polygon id="Fill-13" fill="#FFFFFF" mask="url(#mask-10)" points="96.7508 24.8313 95.7658 24.4833 106.1388 -7.5497 108.8788 -6.5827"></polygon>
                    </g>
                    <g id="Group-18">
                        <mask id="mask-12" fill="white">
                            <use xlink:href="#path-11"></use>
                        </mask>
                        <g id="Clip-17"></g>
                        <polygon id="Fill-16" fill="#FFFFFF" mask="url(#mask-12)" points="104.0838 20.43 102.9598 19.914 113.0538 -4.824 115.7148 -3.652"></polygon>
                    </g>
                    <g id="Group-21">
                        <mask id="mask-14" fill="white">
                            <use xlink:href="#path-13"></use>
                        </mask>
                        <g id="Clip-20"></g>
                        <polygon id="Fill-19" fill="#FFFFFF" mask="url(#mask-14)" points="105.2547 29.0154 104.3427 28.5064 119.9747 -1.3166 122.5127 0.0994"></polygon>
                    </g>
                    <g id="Group-24">
                        <mask id="mask-16" fill="white">
                            <use xlink:href="#path-15"></use>
                        </mask>
                        <g id="Clip-23"></g>
                        <polygon id="Fill-22" fill="#FFFFFF" mask="url(#mask-16)" points="113.2264 25.9148 112.2054 25.2168 126.3304 2.5388 128.7554 4.1428"></polygon>
                    </g>
                    <g id="Group-27">
                        <mask id="mask-18" fill="white">
                            <use xlink:href="#path-17"></use>
                        </mask>
                        <g id="Clip-26"></g>
                        <polygon id="Fill-25" fill="#FFFFFF" mask="url(#mask-18)" points="112.9305 34.575 112.1175 33.919 132.5605 7.164 134.8235 8.989"></polygon>
                    </g>
                    <g id="Group-30">
                        <mask id="mask-20" fill="white">
                            <use xlink:href="#path-19"></use>
                        </mask>
                        <g id="Clip-29"></g>
                        <polygon id="Fill-28" fill="#FFFFFF" mask="url(#mask-20)" points="121.3104 32.865 120.4214 32.005 138.1744 12.037 140.2924 14.027"></polygon>
                    </g>
                    <g id="Group-33">
                        <mask id="mask-22" fill="white">
                            <use xlink:href="#path-21"></use>
                        </mask>
                        <g id="Clip-32"></g>
                        <polygon id="Fill-31" fill="#FFFFFF" mask="url(#mask-22)" points="119.5575 41.3509 118.8665 40.5669 143.5335 17.6479 145.4545 19.8289"></polygon>
                    </g>
                    <g id="Group-36">
                        <mask id="mask-24" fill="white">
                            <use xlink:href="#path-23"></use>
                        </mask>
                        <g id="Clip-35"></g>
                        <polygon id="Fill-34" fill="#FFFFFF" mask="url(#mask-24)" points="128.1053 41.0804 127.3753 40.0824 148.2443 23.3984 149.9963 25.7184"></polygon>
                    </g>
                    <g id="Group-39">
                        <mask id="mask-26" fill="white">
                            <use xlink:href="#path-25"></use>
                        </mask>
                        <g id="Clip-38"></g>
                        <polygon id="Fill-37" fill="#FFFFFF" mask="url(#mask-26)" points="131.6268 85.7752 131.7588 84.7382 165.2628 88.0872 164.8978 90.9702"></polygon>
                    </g>
                    <g id="Group-42">
                        <mask id="mask-28" fill="white">
                            <use xlink:href="#path-27"></use>
                        </mask>
                        <g id="Clip-41"></g>
                        <polygon id="Fill-40" fill="#FFFFFF" mask="url(#mask-28)" points="137.4823 92.0086 137.7483 90.8006 164.0633 95.4236 163.4823 98.2716"></polygon>
                    </g>
                    <g id="Group-45">
                        <mask id="mask-30" fill="white">
                            <use xlink:href="#path-29"></use>
                        </mask>
                        <g id="Clip-44"></g>
                        <polygon id="Fill-43" fill="#FFFFFF" mask="url(#mask-30)" points="129.3407 94.9729 129.6447 93.9729 162.1027 102.9309 161.2557 105.7109"></polygon>
                    </g>
                    <g id="Group-48">
                        <mask id="mask-32" fill="white">
                            <use xlink:href="#path-31"></use>
                        </mask>
                        <g id="Clip-47"></g>
                        <polygon id="Fill-46" fill="#FFFFFF" mask="url(#mask-32)" points="134.0594 102.1057 134.5254 100.9597 159.6824 109.9597 158.6284 112.6687"></polygon>
                    </g>
                    <g id="Group-51">
                        <mask id="mask-34" fill="white">
                            <use xlink:href="#path-33"></use>
                        </mask>
                        <g id="Clip-50"></g>
                        <polygon id="Fill-49" fill="#FFFFFF" mask="url(#mask-34)" points="125.534 103.6521 126.003 102.7181 156.481 117.0271 155.178 119.6251"></polygon>
                    </g>
                    <g id="Group-54">
                        <mask id="mask-36" fill="white">
                            <use xlink:href="#path-35"></use>
                        </mask>
                        <g id="Clip-53"></g>
                        <polygon id="Fill-52" fill="#FFFFFF" mask="url(#mask-36)" points="128.9803 111.4793 129.6323 110.4283 152.9093 123.5463 151.4133 126.0393"></polygon>
                    </g>
                    <g id="Group-57">
                        <mask id="mask-38" fill="white">
                            <use xlink:href="#path-37"></use>
                        </mask>
                        <g id="Clip-56"></g>
                        <polygon id="Fill-55" fill="#FFFFFF" mask="url(#mask-38)" points="120.3163 111.5642 120.9353 110.7222 148.5613 129.9722 146.8373 132.3132"></polygon>
                    </g>
                    <g id="Group-60">
                        <mask id="mask-40" fill="white">
                            <use xlink:href="#path-39"></use>
                        </mask>
                        <g id="Clip-59"></g>
                        <polygon id="Fill-58" fill="#FFFFFF" mask="url(#mask-40)" points="122.3914 119.8611 123.2124 118.9351 143.9394 135.7951 142.0434 137.9991"></polygon>
                    </g>
                    <g id="Group-63">
                        <mask id="mask-42" fill="white">
                            <use xlink:href="#path-41"></use>
                        </mask>
                        <g id="Clip-62"></g>
                        <polygon id="Fill-61" fill="#FFFFFF" mask="url(#mask-42)" points="113.8368 118.4817 114.5908 117.7567 138.5688 141.3947 136.4748 143.4107"></polygon>
                    </g>
                    <g id="Group-66">
                        <mask id="mask-44" fill="white">
                            <use xlink:href="#path-43"></use>
                        </mask>
                        <g id="Clip-65"></g>
                        <polygon id="Fill-64" fill="#FFFFFF" mask="url(#mask-44)" points="114.4823 127.0096 115.4473 126.2366 133.0303 146.3536 130.7903 148.2056"></polygon>
                    </g>
                    <g id="Group-69">
                        <mask id="mask-46" fill="white">
                            <use xlink:href="#path-45"></use>
                        </mask>
                        <g id="Clip-68"></g>
                        <polygon id="Fill-67" fill="#FFFFFF" mask="url(#mask-46)" points="106.284 124.2058 107.148 123.6188 126.791 150.9658 124.387 152.5998"></polygon>
                    </g>
                    <g id="Group-72">
                        <mask id="mask-48" fill="white">
                            <use xlink:href="#path-47"></use>
                        </mask>
                        <g id="Clip-71"></g>
                        <polygon id="Fill-70" fill="#FFFFFF" mask="url(#mask-48)" points="105.4793 132.7205 106.5613 132.1205 120.4953 154.9185 117.9743 156.3655"></polygon>
                    </g>
                    <g id="Group-75">
                        <mask id="mask-50" fill="white">
                            <use xlink:href="#path-49"></use>
                        </mask>
                        <g id="Clip-74"></g>
                        <polygon id="Fill-73" fill="#FFFFFF" mask="url(#mask-50)" points="97.8719 128.5725 98.8229 128.1395 113.5659 158.4105 110.9209 159.6145"></polygon>
                    </g>
                    <g id="Group-78">
                        <mask id="mask-52" fill="white">
                            <use xlink:href="#path-51"></use>
                        </mask>
                        <g id="Clip-77"></g>
                        <polygon id="Fill-76" fill="#FFFFFF" mask="url(#mask-52)" points="95.6414 136.8289 96.8094 136.4209 106.6934 161.2439 103.9644 162.2449"></polygon>
                    </g>
                    <g id="Group-81">
                        <mask id="mask-54" fill="white">
                            <use xlink:href="#path-53"></use>
                        </mask>
                        <g id="Clip-80"></g>
                        <polygon id="Fill-79" fill="#FFFFFF" mask="url(#mask-54)" points="88.8436 131.4558 89.8546 131.1898 99.2756 163.5168 96.4646 164.2558"></polygon>
                    </g>
                    <g id="Group-84">
                        <mask id="mask-56" fill="white">
                            <use xlink:href="#path-55"></use>
                        </mask>
                        <g id="Clip-83"></g>
                        <polygon id="Fill-82" fill="#FFFFFF" mask="url(#mask-56)" points="85.2518 139.2176 86.4718 139.0126 92.0228 165.1476 89.1638 165.6736"></polygon>
                    </g>
                    <g id="Group-87">
                        <mask id="mask-58" fill="white">
                            <use xlink:href="#path-57"></use>
                        </mask>
                        <g id="Clip-86"></g>
                        <polygon id="Fill-85" fill="#FFFFFF" mask="url(#mask-58)" points="79.4579 132.7737 80.4989 132.6827 84.3269 166.1347 81.4319 166.3897"></polygon>
                    </g>
                    <g id="Group-90">
                        <mask id="mask-60" fill="white">
                            <use xlink:href="#path-59"></use>
                        </mask>
                        <g id="Clip-89"></g>
                        <polygon id="Fill-88" fill="#FFFFFF" mask="url(#mask-60)" points="74.6073 139.8177 75.8433 139.8207 76.9033 166.5187 73.9963 166.5537"></polygon>
                    </g>
                    <g id="Group-93">
                        <mask id="mask-62" fill="white">
                            <use xlink:href="#path-61"></use>
                        </mask>
                        <g id="Clip-92"></g>
                        <polygon id="Fill-91" fill="#FFFFFF" mask="url(#mask-62)" points="69.9852 132.4881 71.0262 132.5731 69.1502 166.1921 66.2542 165.9541"></polygon>
                    </g>
                    <g id="Group-96">
                        <mask id="mask-64" fill="white">
                            <use xlink:href="#path-63"></use>
                        </mask>
                        <g id="Clip-95"></g>
                        <polygon id="Fill-94" fill="#FFFFFF" mask="url(#mask-64)" points="64.0145 138.6116 65.2325 138.8236 61.7685 165.3166 58.8975 164.8606"></polygon>
                    </g>
                    <g id="Group-99">
                        <mask id="mask-66" fill="white">
                            <use xlink:href="#path-65"></use>
                        </mask>
                        <g id="Clip-98"></g>
                        <polygon id="Fill-97" fill="#FFFFFF" mask="url(#mask-66)" points="60.6961 130.6072 61.7081 130.8672 54.1821 163.6862 51.3681 162.9632"></polygon>
                    </g>
                    <g id="Group-102">
                        <mask id="mask-68" fill="white">
                            <use xlink:href="#path-67"></use>
                        </mask>
                        <g id="Clip-101"></g>
                        <polygon id="Fill-100" fill="#FFFFFF" mask="url(#mask-68)" points="53.7772 135.6341 54.9422 136.0501 47.0542 161.5771 44.3012 160.6431"></polygon>
                    </g>
                    <g id="Group-105">
                        <mask id="mask-70" fill="white">
                            <use xlink:href="#path-69"></use>
                        </mask>
                        <g id="Clip-104"></g>
                        <polygon id="Fill-103" fill="#FFFFFF" mask="url(#mask-70)" points="51.8582 127.1844 52.8112 127.6124 39.8532 158.6894 37.2002 157.5004"></polygon>
                    </g>
                    <g id="Group-108">
                        <mask id="mask-72" fill="white">
                            <use xlink:href="#path-71"></use>
                        </mask>
                        <g id="Clip-107"></g>
                        <polygon id="Fill-106" fill="#FFFFFF" mask="url(#mask-72)" points="44.1893 130.9715 45.2673 131.5765 33.1833 155.4065 30.6273 154.0215"></polygon>
                    </g>
                    <g id="Group-111">
                        <mask id="mask-74" fill="white">
                            <use xlink:href="#path-73"></use>
                        </mask>
                        <g id="Clip-110"></g>
                        <polygon id="Fill-109" fill="#FFFFFF" mask="url(#mask-74)" points="43.7245 122.3186 44.5925 122.9016 26.5735 151.3446 24.1595 149.7246"></polygon>
                    </g>
                    <g id="Group-114">
                        <mask id="mask-76" fill="white">
                            <use xlink:href="#path-75"></use>
                        </mask>
                        <g id="Clip-113"></g>
                        <polygon id="Fill-112" fill="#FFFFFF" mask="url(#mask-76)" points="35.5272 124.7566 36.4872 125.5356 20.5532 146.9826 18.2682 145.1856"></polygon>
                    </g>
                    <g id="Group-117">
                        <mask id="mask-78" fill="white">
                            <use xlink:href="#path-77"></use>
                        </mask>
                        <g id="Clip-116"></g>
                        <polygon id="Fill-115" fill="#FFFFFF" mask="url(#mask-78)" points="36.5301 116.1497 37.2871 116.8707 14.7231 141.8627 12.6171 139.8587"></polygon>
                    </g>
                    <g id="Group-120">
                        <mask id="mask-80" fill="white">
                            <use xlink:href="#path-79"></use>
                        </mask>
                        <g id="Clip-119"></g>
                        <polygon id="Fill-118" fill="#FFFFFF" mask="url(#mask-80)" points="28.0379 117.1682 28.8529 118.0982 9.5259 136.5462 7.5779 134.3902"></polygon>
                    </g>
                    <g id="Group-123">
                        <mask id="mask-82" fill="white">
                            <use xlink:href="#path-81"></use>
                        </mask>
                        <g id="Clip-122"></g>
                        <polygon id="Fill-121" fill="#FFFFFF" mask="url(#mask-82)" points="30.4793 108.8543 31.1043 109.6923 4.6443 130.5163 2.9083 128.1863"></polygon>
                    </g>
                    <g id="Group-126">
                        <mask id="mask-84" fill="white">
                            <use xlink:href="#path-83"></use>
                        </mask>
                        <g id="Clip-125"></g>
                        <polygon id="Fill-124" fill="#FFFFFF" mask="url(#mask-84)" points="21.9383 108.4246 22.5843 109.4796 0.4203 124.3996 -1.1357 121.9446"></polygon>
                    </g>
                    <g id="Group-129">
                        <mask id="mask-86" fill="white">
                            <use xlink:href="#path-85"></use>
                        </mask>
                        <g id="Clip-128"></g>
                        <polygon id="Fill-127" fill="#FFFFFF" mask="url(#mask-86)" points="25.7489 100.6424 26.2229 101.5744 -3.3731 117.6304 -4.6911 115.0404"></polygon>
                    </g>
                    <g id="Group-132">
                        <mask id="mask-88" fill="white">
                            <use xlink:href="#path-87"></use>
                        </mask>
                        <g id="Clip-131"></g>
                        <polygon id="Fill-130" fill="#FFFFFF" mask="url(#mask-88)" points="17.4022 98.7766 17.8612 99.9246 -6.5038 110.8886 -7.6238 108.2056"></polygon>
                    </g>
                    <g id="Group-135">
                        <mask id="mask-90" fill="white">
                            <use xlink:href="#path-89"></use>
                        </mask>
                        <g id="Clip-134"></g>
                        <polygon id="Fill-133" fill="#FFFFFF" mask="url(#mask-90)" points="22.4715 91.7493 22.7825 92.7473 -9.0995 103.5773 -9.9635 100.8013"></polygon>
                    </g>
                    <g id="Group-138">
                        <mask id="mask-92" fill="white">
                            <use xlink:href="#path-91"></use>
                        </mask>
                        <g id="Clip-137"></g>
                        <polygon id="Fill-136" fill="#FFFFFF" mask="url(#mask-92)" points="14.5604 88.5008 14.8184 89.7098 -11.0476 96.4028 -11.6986 93.5698"></polygon>
                    </g>
                    <g id="Group-141">
                        <mask id="mask-94" fill="white">
                            <use xlink:href="#path-93"></use>
                        </mask>
                        <g id="Clip-140"></g>
                        <polygon id="Fill-139" fill="#FFFFFF" mask="url(#mask-94)" points="20.743 82.4305 20.881 83.4665 -12.372 88.7575 -12.754 85.8765"></polygon>
                    </g>
                    <g id="Group-144">
                        <mask id="mask-96" fill="white">
                            <use xlink:href="#path-95"></use>
                        </mask>
                        <g id="Clip-143"></g>
                        <polygon id="Fill-142" fill="#FFFFFF" mask="url(#mask-96)" points="26.826 38.1902 26.09 39.1842 3.965 24.2052 5.66 21.8442"></polygon>
                    </g>
                    <g id="Group-147">
                        <mask id="mask-98" fill="white">
                            <use xlink:href="#path-97"></use>
                        </mask>
                        <g id="Clip-146"></g>
                        <polygon id="Fill-145" fill="#FFFFFF" mask="url(#mask-98)" points="35.4686 38.8142 34.7816 39.6022 8.8236 18.1562 10.7336 15.9652"></polygon>
                    </g>
                    <g id="Group-150">
                        <mask id="mask-100" fill="white">
                            <use xlink:href="#path-99"></use>
                        </mask>
                        <g id="Clip-149"></g>
                        <polygon id="Fill-148" fill="#FFFFFF" mask="url(#mask-100)" points="34.0789 30.3758 33.1849 31.2308 13.9069 12.7318 15.9759 10.6898"></polygon>
                    </g>
                    <g id="Group-153">
                        <mask id="mask-102" fill="white">
                            <use xlink:href="#path-101"></use>
                        </mask>
                        <g id="Clip-152"></g>
                        <polygon id="Fill-151" fill="#FFFFFF" mask="url(#mask-102)" points="42.492 32.4505 41.681 33.1115 19.718 7.5905 21.97 5.7525"></polygon>
                    </g>
                    <g id="Group-156">
                        <mask id="mask-104" fill="white">
                            <use xlink:href="#path-103"></use>
                        </mask>
                        <g id="Clip-155"></g>
                        <polygon id="Fill-154" fill="#FFFFFF" mask="url(#mask-104)" points="42.5467 23.8982 41.5217 24.5902 25.6437 3.1012 28.0277 1.4392"></polygon>
                    </g>
                    <g id="Group-159">
                        <mask id="mask-106" fill="white">
                            <use xlink:href="#path-105"></use>
                        </mask>
                        <g id="Clip-158"></g>
                        <polygon id="Fill-157" fill="#FFFFFF" mask="url(#mask-106)" points="50.4881 27.3636 49.5791 27.8776 32.2391 -0.9854 34.7681 -2.4164"></polygon>
                    </g>
                    <g id="Group-162">
                        <mask id="mask-108" fill="white">
                            <use xlink:href="#path-107"></use>
                        </mask>
                        <g id="Clip-161"></g>
                        <polygon id="Fill-160" fill="#FFFFFF" mask="url(#mask-108)" points="51.9862 18.9431 50.8592 19.4521 38.8382 -4.4089 41.4682 -5.6449"></polygon>
                    </g>
                    <g id="Group-165">
                        <mask id="mask-110" fill="white">
                            <use xlink:href="#path-109"></use>
                        </mask>
                        <g id="Clip-164"></g>
                        <polygon id="Fill-163" fill="#FFFFFF" mask="url(#mask-110)" points="59.2293 23.6995 58.2463 24.0535 46.0283 -7.3225 48.7633 -8.3065"></polygon>
                    </g>
                    <g id="Group-168">
                        <mask id="mask-112" fill="white">
                            <use xlink:href="#path-111"></use>
                        </mask>
                        <g id="Clip-167"></g>
                        <polygon id="Fill-166" fill="#FFFFFF" mask="url(#mask-112)" points="62.1278 15.6531 60.9308 15.9651 53.1098 -9.5839 55.9118 -10.3579"></polygon>
                    </g>
                    <g id="Group-171">
                        <mask id="mask-114" fill="white">
                            <use xlink:href="#path-113"></use>
                        </mask>
                        <g id="Clip-170"></g>
                        <polygon id="Fill-169" fill="#FFFFFF" mask="url(#mask-114)" points="68.4627 21.5642 67.4337 21.7472 60.6897 -11.2418 63.5517 -11.7488"></polygon>
                    </g>
                    <g id="Group-174">
                        <mask id="mask-116" fill="white">
                            <use xlink:href="#path-115"></use>
                        </mask>
                        <g id="Clip-173"></g>
                        <polygon id="Fill-172" fill="#FFFFFF" mask="url(#mask-116)" points="72.6786 14.1228 71.4466 14.2268 68.0516 -12.2742 70.9446 -12.5642"></polygon>
                    </g>
                </g>
                <g id="Group-214" transform="translate(0.000000, 49.000000)" fill="#FFFFFF">
                    <path d="M9.8846,9.0042 L7.1626,8.4832 C5.8716,8.2342 5.1606,7.5022 5.1606,6.4212 C5.1606,5.2752 6.2496,4.0882 8.0716,4.0882 C10.8646,4.0882 11.3996,6.2822 11.4786,6.7222 C11.4856,6.7622 11.5096,6.7972 11.5436,6.8182 C11.5786,6.8392 11.6216,6.8442 11.6596,6.8332 L15.0696,5.7882 C15.1386,5.7662 15.1806,5.6952 15.1656,5.6242 C14.9236,4.4112 13.6946,0.4512 8.0436,0.4512 C4.2206,0.4512 1.1106,3.2532 1.1106,6.6972 C1.1106,9.6132 3.0646,11.7512 6.3376,12.4172 L9.0616,12.9672 C10.4696,13.2492 11.3116,14.0612 11.3116,15.1382 C11.3116,16.5052 10.1256,17.3882 8.2906,17.3882 C5.4756,17.3882 4.3166,15.5662 4.1706,13.8602 C4.1666,13.8192 4.1456,13.7812 4.1106,13.7572 C4.0766,13.7332 4.0336,13.7252 3.9926,13.7352 L0.4736,14.6712 C0.4056,14.6892 0.3616,14.7542 0.3686,14.8232 C0.7066,17.9242 3.2796,21.0532 8.2636,21.0532 C11.7446,21.0532 15.4446,18.8932 15.4446,14.8902 C15.4446,11.9242 13.3146,9.6692 9.8846,9.0042" id="Fill-176"></path>
                    <path d="M31.1727,17.0857 C28.3147,17.0857 25.2367,15.0997 25.2367,10.7387 C25.2367,6.3777 28.3147,4.3917 31.1727,4.3917 C34.0437,4.3917 37.1347,6.3777 37.1347,10.7387 C37.1347,15.0997 34.0437,17.0857 31.1727,17.0857 M31.1727,0.4507 C28.4767,0.4507 25.9607,1.4327 24.0907,3.2157 C22.0827,5.1287 21.0227,7.7407 21.0227,10.7667 C21.0227,13.7797 22.0827,16.3827 24.0907,18.2927 C25.9627,20.0727 28.4777,21.0537 31.1727,21.0537 C33.8797,21.0537 36.4027,20.0727 38.2777,18.2927 C40.2877,16.3837 41.3507,13.7817 41.3507,10.7667 C41.3507,7.7387 40.2877,5.1277 38.2777,3.2157 C36.4047,1.4327 33.8817,0.4507 31.1727,0.4507" id="Fill-178"></path>
                    <path d="M63.1561,0.8631 L59.3621,0.8631 C59.2841,0.8631 59.2201,0.9261 59.2201,1.0051 L59.2201,13.3231 C59.2201,15.7491 57.9531,17.0861 55.6501,17.0861 C53.3981,17.0861 52.1071,15.7141 52.1071,13.3231 L52.1071,1.0051 C52.1071,0.9261 52.0441,0.8631 51.9661,0.8631 L48.1711,0.8631 C48.0931,0.8631 48.0291,0.9261 48.0291,1.0051 L48.0291,13.5981 C48.0291,18.1441 51.0201,21.0821 55.6501,21.0821 C60.2961,21.0821 63.2981,18.1441 63.2981,13.5981 L63.2981,1.0051 C63.2981,0.9261 63.2341,0.8631 63.1561,0.8631" id="Fill-180"></path>
                    <path d="M85.7079,0.8631 L69.5679,0.8631 C69.4899,0.8631 69.4269,0.9261 69.4269,1.0051 L69.4269,4.6071 C69.4269,4.6851 69.4899,4.7491 69.5679,4.7491 L75.5859,4.7491 L75.5859,20.5001 C75.5859,20.5781 75.6489,20.6411 75.7279,20.6411 L79.5489,20.6411 C79.6269,20.6411 79.6899,20.5781 79.6899,20.5001 L79.6899,4.7491 L85.7079,4.7491 C85.7859,4.7491 85.8499,4.6851 85.8499,4.6071 L85.8499,1.0051 C85.8499,0.9261 85.7859,0.8631 85.7079,0.8631" id="Fill-182"></path>
                    <path d="M108.3416,0.8631 L104.5206,0.8631 C104.4426,0.8631 104.3786,0.9261 104.3786,1.0051 L104.3786,8.7001 L96.1646,8.7001 L96.1646,1.0051 C96.1646,0.9261 96.1016,0.8631 96.0236,0.8631 L92.2296,0.8631 C92.1516,0.8631 92.0876,0.9261 92.0876,1.0051 L92.0876,20.5001 C92.0876,20.5781 92.1516,20.6411 92.2296,20.6411 L96.0236,20.6411 C96.1016,20.6411 96.1646,20.5781 96.1646,20.5001 L96.1646,12.5571 L104.3786,12.5571 L104.3786,20.5001 C104.3786,20.5781 104.4426,20.6411 104.5206,20.6411 L108.3416,20.6411 C108.4196,20.6411 108.4836,20.5781 108.4836,20.5001 L108.4836,1.0051 C108.4836,0.9261 108.4196,0.8631 108.3416,0.8631" id="Fill-184"></path>
                    <path d="M128.8592,0.8631 L116.6512,0.8631 C116.5732,0.8631 116.5092,0.9261 116.5092,1.0051 L116.5092,20.5001 C116.5092,20.5781 116.5732,20.6411 116.6512,20.6411 L128.8592,20.6411 C128.9372,20.6411 129.0012,20.5781 129.0012,20.5001 L129.0012,16.9251 C129.0012,16.8471 128.9372,16.7841 128.8592,16.7841 L120.5872,16.7841 L120.5872,12.5571 L128.0622,12.5571 C128.1402,12.5571 128.2042,12.4941 128.2042,12.4161 L128.2042,9.0341 C128.2042,8.9561 128.1402,8.8921 128.0622,8.8921 L120.5872,8.8921 L120.5872,4.7211 L128.8592,4.7211 C128.9372,4.7211 129.0012,4.6581 129.0012,4.5801 L129.0012,1.0051 C129.0012,0.9261 128.9372,0.8631 128.8592,0.8631" id="Fill-186"></path>
                    <path d="M140.4715,4.4461 L143.4095,4.4461 C145.2325,4.4461 146.3205,5.4101 146.3205,7.0261 C146.3205,8.6011 145.2045,9.5801 143.4095,9.5801 L140.4715,9.5801 L140.4715,4.4461 Z M150.4805,6.9991 C150.4805,3.3861 147.8675,0.8631 144.1245,0.8631 L136.5075,0.8631 C136.4295,0.8631 136.3665,0.9261 136.3665,1.0051 L136.3665,20.5001 C136.3665,20.5781 136.4295,20.6411 136.5075,20.6411 L140.3295,20.6411 C140.4085,20.6411 140.4715,20.5781 140.4715,20.5001 L140.4715,13.1341 L142.2225,13.1341 L146.0055,20.5641 C146.0295,20.6121 146.0775,20.6411 146.1315,20.6411 L150.3665,20.6411 C150.4155,20.6411 150.4615,20.6151 150.4875,20.5731 C150.5125,20.5301 150.5145,20.4781 150.4925,20.4341 L146.3915,12.6121 C148.9555,11.8001 150.4805,9.7131 150.4805,6.9991 L150.4805,6.9991 Z" id="Fill-188"></path>
                    <path d="M174.1825,0.8631 L170.3885,0.8631 C170.3105,0.8631 170.2465,0.9261 170.2465,1.0051 L170.2465,13.4091 L162.3975,0.9291 C162.3705,0.8881 162.3265,0.8631 162.2775,0.8631 L157.5475,0.8631 C157.4695,0.8631 157.4065,0.9261 157.4065,1.0051 L157.4065,20.5001 C157.4065,20.5781 157.4695,20.6411 157.5475,20.6411 L161.3415,20.6411 C161.4195,20.6411 161.4835,20.5781 161.4835,20.5001 L161.4835,7.1531 L170.0775,20.5761 C170.1025,20.6171 170.1485,20.6411 170.1965,20.6411 L174.1825,20.6411 C174.2605,20.6411 174.3245,20.5781 174.3245,20.5001 L174.3245,1.0051 C174.3245,0.9261 174.2605,0.8631 174.1825,0.8631" id="Fill-190"></path>
                    <path d="M197.0995,4.4461 L199.9545,4.4461 C201.7775,4.4461 202.8655,5.4421 202.8655,7.1091 C202.8655,8.7351 201.7495,9.7451 199.9545,9.7451 L197.0995,9.7451 L197.0995,4.4461 Z M200.4215,0.8631 L193.1355,0.8631 C193.0575,0.8631 192.9945,0.9261 192.9945,1.0051 L192.9945,20.5001 C192.9945,20.5781 193.0575,20.6411 193.1355,20.6411 L196.9295,20.6411 C197.0075,20.6411 197.0715,20.5781 197.0715,20.5001 L197.0715,13.3001 L200.4215,13.3001 C204.2775,13.3001 206.9705,10.7431 206.9705,7.0821 C206.9705,3.4201 204.2775,0.8631 200.4215,0.8631 L200.4215,0.8631 Z" id="Fill-192"></path>
                    <path d="M217.534,4.4461 L220.472,4.4461 C222.294,4.4461 223.382,5.4101 223.382,7.0261 C223.382,8.6011 222.266,9.5801 220.472,9.5801 L217.534,9.5801 L217.534,4.4461 Z M227.542,6.9991 C227.542,3.3861 224.929,0.8631 221.186,0.8631 L213.57,0.8631 C213.492,0.8631 213.429,0.9261 213.429,1.0051 L213.429,20.5001 C213.429,20.5781 213.492,20.6411 213.57,20.6411 L217.392,20.6411 C217.471,20.6411 217.534,20.5781 217.534,20.5001 L217.534,13.1341 L219.285,13.1341 L223.068,20.5641 C223.092,20.6121 223.14,20.6411 223.194,20.6411 L227.429,20.6411 C227.478,20.6411 227.524,20.6151 227.55,20.5731 C227.575,20.5301 227.577,20.4781 227.555,20.4341 L223.454,12.6121 C226.017,11.8001 227.542,9.7131 227.542,6.9991 L227.542,6.9991 Z" id="Fill-194"></path>
                    <path d="M243.326,17.0857 C240.468,17.0857 237.391,15.0997 237.391,10.7387 C237.391,6.3777 240.468,4.3917 243.326,4.3917 C246.198,4.3917 249.289,6.3777 249.289,10.7387 C249.289,15.0997 246.198,17.0857 243.326,17.0857 M243.326,0.4507 C240.63,0.4507 238.114,1.4327 236.244,3.2157 C234.236,5.1287 233.176,7.7407 233.176,10.7667 C233.176,13.7797 234.236,16.3827 236.244,18.2927 C238.116,20.0727 240.631,21.0537 243.326,21.0537 C246.033,21.0537 248.556,20.0727 250.431,18.2927 C252.441,16.3837 253.504,13.7817 253.504,10.7667 C253.504,7.7387 252.441,5.1277 250.431,3.2157 C248.558,1.4327 246.035,0.4507 243.326,0.4507" id="Fill-196"></path>
                    <path d="M264.4803,4.4461 L267.3353,4.4461 C269.1593,4.4461 270.2473,5.4421 270.2473,7.1091 C270.2473,8.7351 269.1313,9.7451 267.3353,9.7451 L264.4803,9.7451 L264.4803,4.4461 Z M267.8033,0.8631 L260.5173,0.8631 C260.4393,0.8631 260.3763,0.9261 260.3763,1.0051 L260.3763,20.5001 C260.3763,20.5781 260.4393,20.6411 260.5173,20.6411 L264.3113,20.6411 C264.3893,20.6411 264.4533,20.5781 264.4533,20.5001 L264.4533,13.3001 L267.8033,13.3001 C271.6593,13.3001 274.3513,10.7431 274.3513,7.0821 C274.3513,3.4201 271.6593,0.8631 267.8033,0.8631 L267.8033,0.8631 Z" id="Fill-198"></path>
                    <path d="M293.16,0.8631 L280.952,0.8631 C280.874,0.8631 280.81,0.9261 280.81,1.0051 L280.81,20.5001 C280.81,20.5781 280.874,20.6411 280.952,20.6411 L293.16,20.6411 C293.238,20.6411 293.302,20.5781 293.302,20.5001 L293.302,16.9251 C293.302,16.8471 293.238,16.7841 293.16,16.7841 L284.888,16.7841 L284.888,12.5571 L292.363,12.5571 C292.441,12.5571 292.505,12.4941 292.505,12.4161 L292.505,9.0341 C292.505,8.9561 292.441,8.8921 292.363,8.8921 L284.888,8.8921 L284.888,4.7211 L293.16,4.7211 C293.238,4.7211 293.302,4.6581 293.302,4.5801 L293.302,1.0051 C293.302,0.9261 293.238,0.8631 293.16,0.8631" id="Fill-200"></path>
                    <path d="M304.7713,4.4461 L307.7093,4.4461 C309.5323,4.4461 310.6203,5.4101 310.6203,7.0261 C310.6203,8.6011 309.5043,9.5801 307.7093,9.5801 L304.7713,9.5801 L304.7713,4.4461 Z M314.7803,6.9991 C314.7803,3.3861 312.1673,0.8631 308.4243,0.8631 L300.8083,0.8631 C300.7303,0.8631 300.6673,0.9261 300.6673,1.0051 L300.6673,20.5001 C300.6673,20.5781 300.7303,20.6411 300.8083,20.6411 L304.6293,20.6411 C304.7083,20.6411 304.7713,20.5781 304.7713,20.5001 L304.7713,13.1341 L306.5233,13.1341 L310.3053,20.5641 C310.3293,20.6121 310.3773,20.6411 310.4313,20.6411 L314.6663,20.6411 C314.7153,20.6411 314.7613,20.6151 314.7873,20.5731 C314.8123,20.5301 314.8143,20.4781 314.7923,20.4341 L310.6923,12.6121 C313.2553,11.8001 314.7803,9.7131 314.7803,6.9991 L314.7803,6.9991 Z" id="Fill-202"></path>
                    <path d="M336.2,0.8631 L320.06,0.8631 C319.982,0.8631 319.919,0.9261 319.919,1.0051 L319.919,4.6071 C319.919,4.6851 319.982,4.7491 320.06,4.7491 L326.077,4.7491 L326.077,20.5001 C326.077,20.5781 326.14,20.6411 326.219,20.6411 L330.041,20.6411 C330.119,20.6411 330.182,20.5781 330.182,20.5001 L330.182,4.7491 L336.2,4.7491 C336.278,4.7491 336.342,4.6851 336.342,4.6071 L336.342,1.0051 C336.342,0.9261 336.278,0.8631 336.2,0.8631" id="Fill-204"></path>
                    <path d="M358.7791,0.8631 L354.5171,0.8631 C354.4671,0.8631 354.4191,0.8901 354.3941,0.9351 L350.1451,8.4441 L345.8961,0.9351 C345.8721,0.8901 345.8241,0.8631 345.7731,0.8631 L341.3191,0.8631 C341.2681,0.8631 341.2201,0.8901 341.1961,0.9351 C341.1711,0.9791 341.1721,1.0341 341.1981,1.0781 L347.9681,12.3451 L347.9681,20.5001 C347.9681,20.5781 348.0321,20.6411 348.1101,20.6411 L351.9051,20.6411 C351.9831,20.6411 352.0471,20.5781 352.0471,20.5001 L352.0471,12.3451 L358.9001,1.0781 C358.9261,1.0341 358.9271,0.9801 358.9031,0.9351 C358.8781,0.8901 358.8301,0.8631 358.7791,0.8631" id="Fill-206"></path>
                    <path d="M165.9266,27.0706 L160.8226,27.0706 C160.6666,27.0706 160.5396,27.1976 160.5396,27.3546 L160.5396,37.5336 L149.7626,37.5336 L149.7626,27.3546 C149.7626,27.1976 149.6356,27.0706 149.4796,27.0706 L144.4126,27.0706 C144.2566,27.0706 144.1296,27.1976 144.1296,27.3546 L144.1296,53.3836 C144.1296,53.5406 144.2566,53.6676 144.4126,53.6676 L149.4796,53.6676 C149.6356,53.6676 149.7626,53.5406 149.7626,53.3836 L149.7626,42.8736 L160.5396,42.8736 L160.5396,53.3836 C160.5396,53.5406 160.6666,53.6676 160.8226,53.6676 L165.9266,53.6676 C166.0826,53.6676 166.2096,53.5406 166.2096,53.3836 L166.2096,27.3546 C166.2096,27.1976 166.0826,27.0706 165.9266,27.0706" id="Fill-208"></path>
                    <path d="M193.0975,27.0706 L188.0315,27.0706 C187.8745,27.0706 187.7475,27.1976 187.7475,27.3546 L187.7475,43.8016 C187.7475,46.9806 186.0875,48.7306 183.0755,48.7306 C180.1285,48.7306 178.4395,46.9346 178.4395,43.8016 L178.4395,27.3546 C178.4395,27.1976 178.3125,27.0706 178.1565,27.0706 L173.0895,27.0706 C172.9335,27.0706 172.8065,27.1976 172.8065,27.3546 L172.8065,44.1686 C172.8065,50.2956 176.8365,54.2556 183.0755,54.2556 C189.3355,54.2556 193.3805,50.2956 193.3805,44.1686 L193.3805,27.3546 C193.3805,27.1976 193.2535,27.0706 193.0975,27.0706" id="Fill-210"></path>
                    <path d="M205.537,42.5804 L209.439,42.5804 C211.676,42.5804 213.011,43.7774 213.011,45.7844 C213.011,47.7214 211.648,48.8784 209.366,48.8784 L205.537,48.8784 L205.537,42.5804 Z M208.851,37.8274 L205.537,37.8274 L205.537,31.8964 L208.815,31.8964 C211.047,31.8964 212.276,32.9434 212.276,34.8434 C212.276,36.6844 210.964,37.8274 208.851,37.8274 L208.851,37.8274 Z M214.593,39.9084 C216.56,38.9064 217.836,36.7724 217.836,34.3664 C217.836,29.9344 214.612,27.0704 209.623,27.0704 L200.261,27.0704 C200.104,27.0704 199.977,27.1974 199.977,27.3544 L199.977,53.3834 C199.977,53.5404 200.104,53.6674 200.261,53.6674 L210.32,53.6674 C215.221,53.6674 218.643,50.5614 218.643,46.1144 C218.643,43.2524 217.045,40.8514 214.593,39.9084 L214.593,39.9084 Z" id="Fill-212"></path>
                </g>
            </g>
        </g>
    </g>
</svg>